<svg xmlns="http://www.w3.org/2000/svg" version="1.1" viewBox="0.00 0.00 1000.00 1000.00" width="1000.00" height="1000.00">
<g stroke-width="2.00" fill="none" stroke-linecap="butt">
<path stroke="#fe1d31" d="&#10;  M 922.37 629.53&#10;  Q 921.47 629.55 921.63 627.76&#10;  Q 921.67 627.26 921.23 627.48&#10;  Q 921.14 627.53 921.13 627.43&#10;  Q 921.06 626.80 920.47 627.01&#10;  C 919.53 627.34 918.28 627.11 917.80 626.14&#10;  Q 917.16 624.81 915.85 624.31&#10;  Q 915.55 624.20 915.34 623.96&#10;  Q 913.89 622.37 912.25 620.76&#10;  Q 910.05 618.59 908.10 615.86&#10;  Q 906.03 612.97 904.18 611.01&#10;  Q 900.18 606.81 896.17 602.86&#10;  Q 895.78 602.48 894.44 600.60&#10;  Q 893.51 599.28 892.09 598.64&#10;  Q 891.68 598.46 891.57 598.03&#10;  Q 891.44 597.53 890.88 597.43&#10;  Q 890.58 597.37 890.38 597.15&#10;  L 881.98 588.17&#10;  Q 881.62 587.79 881.53 587.28&#10;  Q 881.41 586.63 880.88 586.41&#10;  Q 880.54 586.27 880.61 585.90&#10;  Q 880.73 585.25 880.59 584.62&#10;  A 1.50 1.49 -79.3 0 0 879.98 583.72&#10;  Q 878.67 582.81 877.66 581.72&#10;  Q 876.55 580.54 875.15 579.53&#10;  Q 873.58 578.40 872.63 576.77&#10;  Q 871.77 575.28 870.25 574.13&#10;  Q 869.82 573.80 869.73 573.27&#10;  Q 869.55 572.05 868.53 571.30&#10;  Q 868.25 571.09 867.89 571.10&#10;  Q 866.56 571.16 866.20 569.83&#10;  A 2.80 2.71 -75.6 0 0 865.51 568.62&#10;  Q 862.99 566.01 861.30 563.76&#10;  Q 860.97 563.32 860.47 563.12&#10;  Q 859.95 562.91 859.67 562.45&#10;  Q 858.86 561.09 857.51 560.23&#10;  Q 857.01 559.91 856.74 559.38&#10;  Q 856.11 558.13 855.00 557.17&#10;  Q 854.85 557.05 854.92 556.87&#10;  Q 854.94 556.82 854.97 556.79&#10;  Q 855.15 556.65 854.94 556.54&#10;  Q 853.04 555.58 851.90 554.24&#10;  Q 850.57 552.68 848.97 551.27&#10;  Q 848.62 550.97 848.50 550.53&#10;  Q 847.93 548.41 845.92 547.26&#10;  Q 845.79 547.19 845.69 547.09&#10;  Q 845.59 546.99 845.62 546.85&#10;  Q 845.75 546.15 845.08 546.37&#10;  Q 844.99 546.40 844.92 546.34&#10;  Q 844.78 546.21 844.71 546.03&#10;  Q 844.30 544.90 843.14 544.42&#10;  A 0.83 0.80 89.6 0 1 842.69 543.96&#10;  L 842.17 542.68&#10;  A 0.57 0.56 -2.2 0 0 841.82 542.36&#10;  Q 840.75 542.01 840.55 540.99&#10;  Q 840.43 540.42 840.01 539.97&#10;  Q 838.29 538.17 836.67 537.17&#10;  Q 836.03 536.77 835.66 536.26&#10;  Q 835.17 535.59 834.73 534.79&#10;  Q 834.54 534.44 834.21 534.22&#10;  Q 833.61 533.82 833.44 533.05&#10;  A 0.81 0.79 -85.0 0 0 832.98 532.49&#10;  Q 831.46 531.86 830.46 530.41&#10;  Q 830.35 530.25 830.37 530.05&#10;  Q 830.38 529.96 830.44 529.89&#10;  Q 830.96 529.29 830.16 529.36&#10;  Q 829.68 529.40 829.63 528.92&#10;  Q 829.56 528.23 828.87 528.26&#10;  Q 828.48 528.28 828.56 527.91&#10;  Q 828.70 527.31 828.08 527.37&#10;  Q 827.25 527.47 827.40 526.64&#10;  Q 827.44 526.46 827.26 526.41&#10;  Q 826.35 526.16 826.43 525.18&#10;  Q 826.47 524.70 826.05 524.48&#10;  C 825.00 523.93 823.91 523.15 823.42 522.02&#10;  Q 822.99 521.04 822.09 520.44&#10;  Q 821.78 520.22 821.69 519.85&#10;  Q 821.60 519.50 821.28 519.35&#10;  Q 819.47 518.51 819.48 516.88&#10;  Q 819.49 516.23 818.85 516.20&#10;  Q 817.39 516.14 816.33 514.86&#10;  Q 815.96 514.42 816.25 513.91&#10;  Q 816.44 513.55 816.04 513.54&#10;  Q 815.45 513.53 815.38 512.92&#10;  Q 815.35 512.69 815.13 512.62&#10;  Q 812.96 511.98 812.62 509.63&#10;  Q 812.56 509.23 812.18 509.36&#10;  Q 812.00 509.42 811.85 509.33&#10;  Q 811.75 509.26 811.68 509.17&#10;  Q 811.58 509.01 811.64 508.84&#10;  Q 811.77 508.47 811.40 508.35&#10;  Q 810.34 507.98 810.37 506.84&#10;  Q 810.38 506.43 809.99 506.31&#10;  Q 808.02 505.72 807.67 504.03&#10;  Q 807.60 503.65 807.36 503.34&#10;  Q 805.93 501.54 804.09 500.04&#10;  Q 802.10 498.42 800.59 496.41&#10;  Q 800.50 496.28 800.58 496.14&#10;  Q 800.65 496.02 800.66 495.89&#10;  Q 800.66 495.52 800.41 495.26&#10;  Q 798.58 493.41 796.86 491.65&#10;  Q 796.01 490.78 794.90 490.08&#10;  A 3.39 3.37 88.9 0 1 793.86 489.07&#10;  Q 792.67 487.24 791.20 486.04&#10;  Q 790.63 485.58 790.61 484.83&#10;  Q 790.59 484.38 790.24 484.09&#10;  Q 788.58 482.68 786.91 481.28&#10;  Q 785.24 479.89 783.98 478.11&#10;  Q 782.73 476.35 781.10 475.17&#10;  Q 780.07 474.41 779.21 473.44&#10;  Q 779.08 473.28 779.09 473.08&#10;  Q 779.09 472.99 779.16 472.94&#10;  Q 779.56 472.69 779.09 472.64&#10;  Q 777.63 472.50 776.90 470.84&#10;  Q 775.22 467.04 771.79 465.70&#10;  Q 771.50 465.58 771.26 465.36&#10;  Q 770.91 465.04 771.13 464.96&#10;  Q 771.80 464.72 771.26 464.22&#10;  Q 769.84 462.92 768.55 461.67&#10;  Q 768.39 461.51 768.34 461.29&#10;  Q 768.33 461.21 768.38 461.15&#10;  Q 768.74 460.73 768.25 460.39&#10;  Q 766.95 459.49 765.69 458.56&#10;  Q 765.63 458.52 765.63 458.45&#10;  L 765.63 458.13&#10;  Q 765.63 457.81 765.40 457.59&#10;  Q 762.68 454.97 760.39 452.41&#10;  Q 759.34 451.23 758.66 449.71&#10;  Q 758.48 449.28 758.10 449.01&#10;  L 755.07 446.84&#10;  Q 754.99 446.78 754.97 446.69&#10;  L 754.87 446.29&#10;  Q 754.78 445.94 754.45 445.81&#10;  Q 753.63 445.49 753.66 444.62&#10;  Q 753.67 444.42 753.46 444.41&#10;  Q 752.52 444.39 752.31 443.28&#10;  A 1.74 1.67 19.3 0 0 751.89 442.45&#10;  Q 750.41 440.83 748.12 439.41&#10;  Q 747.67 439.13 747.45 438.66&#10;  Q 747.24 438.22 747.51 437.84&#10;  Q 747.82 437.41 747.31 437.28&#10;  Q 746.88 437.18 746.73 436.76&#10;  Q 746.64 436.48 746.41 436.25&#10;  Q 745.34 435.14 744.07 434.40&#10;  Q 743.27 433.93 743.01 432.96&#10;  Q 742.96 432.74 743.17 432.67&#10;  Q 743.58 432.52 743.15 432.59&#10;  Q 742.95 432.62 742.75 432.60&#10;  Q 742.47 432.57 742.39 432.29&#10;  Q 742.33 432.11 742.36 431.91&#10;  Q 742.40 431.69 742.18 431.64&#10;  Q 740.61 431.32 740.28 429.73&#10;  Q 740.26 429.65 740.21 429.59&#10;  L 738.30 427.74&#10;  Q 738.23 427.67 738.14 427.63&#10;  Q 737.40 427.38 737.57 426.64&#10;  Q 737.67 426.23 737.26 426.35&#10;  Q 737.10 426.40 736.96 426.36&#10;  Q 736.83 426.33 736.73 426.24&#10;  Q 736.43 425.96 736.55 425.67&#10;  Q 736.68 425.35 736.36 425.22&#10;  Q 735.61 424.93 735.62 424.16&#10;  Q 735.62 423.67 735.28 423.33&#10;  L 726.03 413.90&#10;  A 1.33 1.31 -72.3 0 1 725.68 413.21&#10;  Q 725.51 412.27 724.67 411.62&#10;  Q 724.26 411.30 723.75 411.39&#10;  Q 723.45 411.45 723.18 411.30&#10;  Q 722.68 411.03 722.49 410.47&#10;  Q 721.77 408.38 720.36 406.73&#10;  Q 720.25 406.60 720.10 406.53&#10;  Q 719.84 406.41 719.57 406.31&#10;  Q 719.10 406.15 718.78 405.78&#10;  L 711.14 396.95&#10;  Q 710.81 396.56 710.69 396.06&#10;  Q 710.40 394.79 708.99 394.34&#10;  Q 708.54 394.20 708.40 393.75&#10;  A 0.61 0.61 0.0 0 0 707.69 393.33&#10;  Q 707.15 393.45 707.13 392.91&#10;  Q 707.11 392.47 706.69 392.33&#10;  Q 705.28 391.87 705.39 390.37&#10;  A 1.95 1.95 0.0 0 0 703.76 388.30&#10;  Q 702.59 388.11 702.61 386.98&#10;  Q 702.61 386.77 702.54 386.57&#10;  Q 702.44 386.31 702.21 386.37&#10;  Q 701.83 386.47 701.56 386.19&#10;  Q 698.41 382.99 695.75 379.41&#10;  Q 694.97 378.36 694.02 377.73&#10;  Q 692.65 376.81 691.87 375.55&#10;  Q 690.37 373.12 688.17 371.31&#10;  Q 687.80 371.01 687.33 370.85&#10;  Q 686.70 370.63 686.72 369.93&#10;  A 0.99 0.98 -67.9 0 0 686.41 369.19&#10;  Q 683.04 366.06 680.68 362.74&#10;  Q 679.65 361.29 678.14 360.13&#10;  Q 677.62 359.72 677.58 359.06&#10;  Q 677.53 358.28 676.77 358.35&#10;  Q 676.22 358.39 675.98 357.90&#10;  Q 675.40 356.68 674.24 355.85&#10;  C 672.35 354.49 670.80 352.46 669.13 350.81&#10;  Q 668.77 350.45 668.66 349.95&#10;  Q 668.40 348.69 667.30 347.99&#10;  Q 666.81 347.67 666.69 347.10&#10;  Q 666.38 345.53 664.90 345.33&#10;  A 1.13 1.12 -18.6 0 1 664.25 345.01&#10;  L 661.22 341.97&#10;  Q 660.88 341.64 660.87 341.17&#10;  Q 660.85 340.49 660.26 340.00&#10;  Q 658.37 338.42 656.22 335.89&#10;  Q 655.93 335.54 655.83 335.10&#10;  Q 655.60 334.05 654.61 333.35&#10;  Q 654.24 333.09 653.79 333.08&#10;  Q 652.73 333.06 652.87 332.02&#10;  A 1.00 1.00 0.0 0 0 651.87 330.88&#10;  Q 650.80 330.89 650.91 329.84&#10;  Q 650.96 329.30 650.55 328.95&#10;  Q 648.67 327.33 647.29 325.62&#10;  Q 645.02 322.81 644.27 322.04&#10;  Q 641.93 319.62 639.35 317.09&#10;  C 638.54 316.31 638.02 315.32 637.38 314.42&#10;  Q 637.08 314.01 636.62 313.79&#10;  Q 635.18 313.12 635.10 311.70&#10;  A 0.86 0.85 -77.2 0 0 634.65 310.98&#10;  Q 633.13 310.16 632.99 308.81&#10;  Q 632.94 308.41 632.55 308.33&#10;  Q 628.52 307.57 625.24 308.33&#10;  Q 624.75 308.44 624.29 308.23&#10;  Q 623.04 307.64 621.53 307.59&#10;  Q 621.31 307.58 621.31 307.35&#10;  L 621.32 307.10&#10;  Q 621.32 307.07 621.35 307.07&#10;  Q 628.52 307.27 634.92 307.06&#10;  Q 638.12 306.96 641.92 305.60&#10;  Q 642.74 305.31 643.65 305.36&#10;  Q 644.59 305.41 645.16 304.68&#10;  A 0.98 0.98 0.0 0 1 645.87 304.30&#10;  Q 646.54 304.25 646.98 303.77&#10;  Q 647.48 303.23 648.14 302.85&#10;  Q 649.28 302.20 650.35 301.54&#10;  Q 651.45 300.87 652.15 299.62&#10;  Q 653.75 296.72 655.71 294.05&#10;  Q 657.46 291.66 657.90 288.85&#10;  Q 658.54 284.78 658.12 281.05&#10;  Q 657.83 278.43 656.86 276.16&#10;  Q 656.08 274.36 656.42 272.05&#10;  Q 656.50 271.50 656.25 270.99&#10;  Q 655.42 269.26 655.67 267.29&#10;  Q 655.78 266.38 655.17 267.07&#10;  Q 653.93 268.46 653.41 270.34"/>
<path stroke="#fe9096" d="&#10;  M 653.41 270.34&#10;  Q 650.30 258.90 640.98 255.19&#10;  Q 636.82 253.54 625.31 253.44&#10;  Q 587.67 253.12 550.06 253.24"/>
<path stroke="#fe1d31" d="&#10;  M 550.06 253.24&#10;  Q 549.28 252.74 547.96 253.03&#10;  Q 547.47 253.14 547.06 252.84&#10;  Q 544.88 251.23 543.65 251.20&#10;  Q 540.92 251.15 537.94 251.35&#10;  A 0.52 0.51 67.5 0 1 537.51 251.17&#10;  Q 537.33 250.97 537.06 250.96&#10;  Q 531.43 250.71 526.09 250.83&#10;  Q 524.05 250.88 521.92 250.41&#10;  Q 519.76 249.94 517.63 249.80&#10;  Q 515.32 249.64 513.42 248.63&#10;  Q 512.83 248.31 513.39 247.94&#10;  Q 513.72 247.72 514.03 247.14&#10;  A 1.21 1.14 61.8 0 0 514.17 246.62&#10;  Q 514.21 242.40 515.10 239.04&#10;  Q 516.15 235.07 516.50 231.68&#10;  Q 517.15 225.20 517.44 219.08&#10;  Q 517.58 216.07 518.05 212.79&#10;  Q 518.48 209.83 518.38 206.47&#10;  Q 518.34 204.94 519.20 203.75&#10;  Q 520.01 202.63 520.27 201.25&#10;  Q 520.97 197.45 521.18 193.92&#10;  Q 521.40 190.18 522.46 185.83&#10;  C 523.05 183.39 522.90 180.96 522.88 178.48&#10;  Q 522.87 178.00 523.13 177.59&#10;  Q 524.50 175.46 524.00 172.64&#10;  Q 523.59 170.30 522.60 167.93&#10;  Q 522.09 166.71 522.03 165.46&#10;  Q 521.91 162.50 521.81 159.68&#10;  Q 521.76 158.24 521.08 156.93&#10;  Q 520.47 155.75 519.95 154.50&#10;  Q 519.54 153.53 518.62 152.74&#10;  Q 517.64 151.90 516.75 151.11&#10;  Q 516.38 150.78 516.21 150.30&#10;  Q 515.67 148.77 514.32 148.02&#10;  Q 513.07 147.33 512.09 146.31&#10;  Q 508.20 142.29 501.75 141.57&#10;  Q 500.74 141.45 499.69 141.57&#10;  Q 498.50 141.70 497.39 141.57&#10;  Q 497.20 141.54 497.24 141.36&#10;  Q 497.25 141.31 497.28 141.27&#10;  Q 497.58 140.90 497.10 140.88&#10;  Q 492.32 140.62 489.47 141.65&#10;  Q 488.31 142.07 487.03 142.44&#10;  Q 485.25 142.96 484.56 143.30&#10;  C 483.54 143.81 482.43 144.27 481.70 145.18&#10;  Q 480.67 146.47 479.04 147.30&#10;  Q 478.58 147.54 478.33 148.00&#10;  Q 477.35 149.81 475.73 151.28&#10;  Q 475.36 151.62 475.22 152.09&#10;  Q 474.96 152.94 474.68 153.77&#10;  Q 474.60 154.01 473.82 155.32&#10;  Q 473.35 156.12 473.11 157.02&#10;  Q 472.57 159.07 471.95 161.38&#10;  Q 471.69 162.32 472.03 163.30&#10;  A 0.41 0.40 -33.2 0 1 471.94 163.71&#10;  Q 471.73 163.94 471.40 164.00&#10;  Q 470.83 164.11 470.80 164.69&#10;  L 470.53 169.79&#10;  Q 470.50 170.28 470.32 170.73&#10;  Q 469.21 173.50 469.60 176.51&#10;  A 1.64 1.60 -36.5 0 1 469.45 177.45&#10;  Q 468.62 179.20 468.88 181.08&#10;  Q 469.18 183.22 468.07 184.83&#10;  Q 467.78 185.25 467.73 185.76&#10;  Q 467.31 189.44 467.11 193.49&#10;  Q 467.09 193.88 466.82 194.20&#10;  Q 466.23 194.89 466.34 193.98&#10;  Q 466.62 191.65 466.74 189.23&#10;  C 466.80 188.00 466.39 186.67 466.96 185.58&#10;  Q 467.19 185.13 467.21 184.62&#10;  Q 467.35 180.93 467.59 176.80&#10;  Q 467.62 176.13 468.23 173.82&#10;  Q 468.62 172.36 468.38 170.72&#10;  A 1.43 1.42 -33.7 0 1 468.58 169.75&#10;  Q 469.05 169.02 468.88 168.10&#10;  A 1.13 1.09 48.1 0 1 468.90 167.55&#10;  L 469.42 165.74&#10;  Q 469.55 165.29 469.40 164.86&#10;  Q 468.87 163.30 469.20 161.71&#10;  Q 469.30 161.23 469.63 160.89&#10;  C 470.33 160.19 469.47 158.30 470.54 157.05&#10;  Q 470.86 156.69 471.04 156.25&#10;  L 473.37 150.74&#10;  Q 473.57 150.27 474.01 150.01&#10;  Q 475.43 149.17 476.17 147.70&#10;  Q 476.38 147.28 476.15 146.87&#10;  Q 476.01 146.63 476.27 146.34&#10;  Q 476.60 145.96 476.99 146.28&#10;  Q 477.17 146.43 477.42 146.43&#10;  Q 477.74 146.42 477.60 146.13&#10;  Q 477.51 145.96 477.34 145.86&#10;  A 0.39 0.39 0.0 0 1 477.39 145.16&#10;  Q 477.74 145.02 478.03 145.26&#10;  Q 478.49 145.64 478.22 145.11&#10;  Q 478.06 144.80 478.14 144.48&#10;  Q 478.22 144.19 478.51 144.12&#10;  Q 478.74 144.05 478.93 144.20&#10;  Q 479.56 144.72 479.19 143.99&#10;  Q 478.91 143.45 479.44 143.16&#10;  Q 479.51 143.13 479.58 143.10&#10;  Q 479.77 143.04 479.91 143.18&#10;  Q 480.51 143.75 480.21 142.98&#10;  Q 480.03 142.52 480.22 142.04&#10;  Q 480.92 140.24 479.60 139.26&#10;  Q 478.79 138.67 478.06 137.92&#10;  Q 477.07 136.91 476.39 135.80&#10;  Q 475.57 134.47 474.61 133.38&#10;  Q 473.17 131.77 471.97 130.04&#10;  Q 470.70 128.23 468.70 127.06&#10;  A 1.86 1.78 -88.8 0 1 468.01 126.31&#10;  Q 467.47 125.24 466.55 124.55&#10;  Q 465.56 123.81 464.80 122.88&#10;  Q 463.03 120.73 461.24 118.70&#10;  Q 460.92 118.34 460.46 118.20&#10;  Q 459.98 118.05 459.66 117.67&#10;  Q 458.67 116.50 457.62 115.61&#10;  Q 456.93 115.03 456.60 114.08&#10;  Q 456.27 113.14 455.73 112.32&#10;  Q 455.48 111.94 455.06 111.78&#10;  Q 453.22 111.05 451.98 109.46&#10;  Q 450.88 108.05 449.37 107.03&#10;  Q 448.93 106.73 448.70 106.25&#10;  Q 447.84 104.41 446.15 103.12&#10;  Q 445.74 102.81 445.61 102.31&#10;  Q 445.32 101.20 444.77 100.72&#10;  Q 443.32 99.45 441.99 97.88&#10;  Q 441.67 97.51 441.61 97.02&#10;  Q 441.49 96.10 440.81 95.47&#10;  Q 439.51 94.25 438.29 93.16&#10;  Q 437.27 92.25 436.24 91.65&#10;  Q 434.54 90.65 433.80 89.04&#10;  Q 433.22 87.80 432.18 86.80&#10;  Q 431.23 85.87 430.50 84.74&#10;  Q 428.92 82.30 426.37 80.73&#10;  Q 426.04 80.53 425.99 80.14&#10;  A 1.54 1.52 18.1 0 0 425.51 79.21&#10;  Q 422.19 76.18 419.78 72.62&#10;  Q 418.51 70.73 416.63 69.14&#10;  Q 414.75 67.54 413.17 65.53&#10;  Q 413.14 65.48 413.13 65.42&#10;  Q 413.10 65.27 413.15 65.13&#10;  Q 413.28 64.71 412.85 64.63&#10;  Q 411.96 64.46 411.93 63.31&#10;  Q 411.92 62.75 412.46 62.62&#10;  Q 413.29 62.40 412.98 61.88"/>
<path stroke="#ff8c9a" d="&#10;  M 550.06 253.24&#10;  Q 545.95 253.55 541.86 253.46&#10;  Q 537.44 253.35 533.59 253.45&#10;  Q 525.95 253.65 517.20 252.82&#10;  C 511.12 252.24 507.44 248.96 508.38 242.62&#10;  Q 512.85 212.64 518.42 174.54&#10;  Q 519.86 164.66 518.95 160.85&#10;  Q 516.62 151.05 507.87 146.64&#10;  Q 504.40 144.89 498.88 144.15&#10;  Q 491.19 143.12 485.87 145.82&#10;  C 478.21 149.71 475.13 156.08 473.92 164.66&#10;  Q 467.86 207.57 462.30 247.16&#10;  Q 462.11 248.55 461.47 249.91&#10;  C 460.20 252.61 455.38 253.34 452.71 253.30&#10;  Q 409.93 252.56 374.42 253.06&#10;  C 363.38 253.22 354.75 261.26 353.74 272.21&#10;  C 352.75 282.95 355.64 291.88 366.16 296.63&#10;  Q 369.54 298.15 375.40 298.24&#10;  Q 407.17 298.72 443.88 298.42&#10;  Q 448.09 298.38 452.58 298.65&#10;  A 1.68 1.67 0.8 0 1 454.16 300.26&#10;  Q 454.25 302.54 453.98 304.72&#10;  Q 452.85 313.89 451.34 323.56&#10;  C 449.86 332.99 443.12 335.72 435.62 339.56&#10;  Q 423.08 345.98 412.76 352.20&#10;  Q 399.19 360.36 386.12 372.30&#10;  Q 378.57 379.19 372.47 387.05&#10;  Q 349.61 416.53 342.03 449.79&#10;  Q 332.98 489.53 348.09 528.58&#10;  Q 354.66 545.56 365.10 560.93&#10;  Q 372.60 571.95 381.36 580.00&#10;  Q 393.85 591.47 408.46 599.21&#10;  C 414.75 602.54 421.14 604.86 427.62 607.53&#10;  Q 434.97 610.56 442.87 611.96&#10;  C 462.26 615.41 482.17 615.72 501.09 610.31&#10;  C 506.56 608.75 512.27 607.81 514.96 614.28&#10;  Q 515.88 616.49 514.97 622.05&#10;  Q 513.58 630.50 512.36 638.43&#10;  Q 511.27 645.57 506.23 647.20&#10;  Q 501.34 648.79 497.73 648.76&#10;  C 448.17 648.45 401.13 648.24 353.00 648.56&#10;  C 342.94 648.63 333.87 656.39 332.77 666.29&#10;  C 332.20 671.39 332.01 677.83 334.62 682.46&#10;  C 339.62 691.34 346.72 693.85 356.68 693.89&#10;  Q 424.42 694.16 495.30 694.10&#10;  C 500.88 694.10 503.86 698.69 503.10 703.75&#10;  Q 496.85 745.11 491.37 784.83&#10;  C 490.42 791.72 491.35 797.30 495.70 802.47&#10;  Q 500.37 808.02 507.40 809.44&#10;  C 514.84 810.93 521.39 811.36 527.84 806.52&#10;  Q 534.59 801.45 535.93 792.42&#10;  Q 543.13 743.84 548.83 702.23&#10;  Q 549.53 697.13 553.16 695.23&#10;  Q 555.22 694.16 559.99 694.19&#10;  Q 603.31 694.45 648.50 694.45&#10;  C 658.84 694.45 666.32 694.99 673.42 687.32&#10;  Q 678.44 681.90 678.80 674.00&#10;  Q 679.13 666.76 677.78 663.16&#10;  Q 672.52 649.09 657.18 648.97&#10;  Q 612.93 648.61 570.08 648.91&#10;  Q 564.98 648.95 563.29 648.20&#10;  Q 557.04 645.43 558.13 637.83&#10;  Q 565.86 584.23 573.48 531.30&#10;  Q 574.95 521.08 574.55 516.08&#10;  Q 573.73 505.95 573.21 502.60&#10;  Q 569.78 480.24 555.94 464.24&#10;  C 544.37 450.87 528.45 442.40 510.95 439.78&#10;  Q 502.09 438.46 490.97 439.16&#10;  C 486.90 439.42 483.35 438.06 482.03 433.90&#10;  Q 481.39 431.87 482.25 426.00&#10;  Q 485.14 406.20 487.86 386.01&#10;  C 489.64 372.74 499.12 371.26 510.20 372.18&#10;  Q 526.37 373.52 545.44 379.73&#10;  Q 555.75 383.09 563.78 387.18&#10;  Q 601.10 406.18 620.64 442.61&#10;  Q 639.95 478.60 637.87 519.94&#10;  Q 636.97 537.79 631.18 555.09&#10;  Q 629.12 561.27 628.98 565.30&#10;  Q 628.80 570.48 631.31 575.80&#10;  Q 634.43 582.42 642.08 585.90&#10;  Q 652.58 590.66 663.26 584.17&#10;  C 668.49 580.99 671.31 575.02 673.13 569.26&#10;  Q 677.23 556.34 679.36 544.63&#10;  Q 687.84 497.94 672.57 451.75&#10;  Q 669.28 441.81 665.48 433.61&#10;  Q 639.96 378.50 587.99 350.21&#10;  Q 579.04 345.34 570.10 341.88&#10;  Q 556.25 336.52 544.44 333.45&#10;  Q 524.75 328.33 504.95 327.93&#10;  Q 502.97 327.89 501.43 326.67&#10;  Q 496.64 322.88 497.72 316.46&#10;  Q 498.67 310.76 499.48 305.16&#10;  C 499.77 303.13 500.60 301.23 501.81 299.57&#10;  A 2.19 2.17 17.9 0 1 503.57 298.68&#10;  Q 567.02 298.82 625.25 298.90&#10;  Q 633.09 298.91 635.49 298.66&#10;  C 645.22 297.64 653.10 288.87 653.53 279.00&#10;  Q 653.66 276.10 653.41 270.34"/>
<path stroke="#ff8c9a" d="&#10;  M 429.88 393.42&#10;  Q 423.17 398.11 417.09 403.68&#10;  Q 410.94 409.31 406.27 415.40&#10;  Q 393.90 431.53 388.07 448.96&#10;  Q 377.03 481.95 389.73 514.00&#10;  C 393.64 523.87 399.38 534.37 406.84 542.27&#10;  Q 409.47 545.05 413.13 545.04&#10;  C 417.85 545.03 420.41 541.65 421.20 537.33&#10;  Q 423.40 525.31 424.67 512.20&#10;  Q 425.62 502.42 427.03 492.33&#10;  Q 433.70 444.79 441.32 394.00&#10;  Q 441.61 392.07 441.15 390.11&#10;  A 1.30 1.30 0.0 0 0 440.52 389.27&#10;  Q 438.98 388.44 437.40 389.16&#10;  Q 433.28 391.04 429.88 393.42"/>
<path stroke="#ff8c9a" d="&#10;  M 530.48 513.30&#10;  A 31.07 31.07 0.0 0 0 499.41 482.23&#10;  A 31.07 31.07 0.0 0 0 468.34 513.30&#10;  A 31.07 31.07 0.0 0 0 499.41 544.37&#10;  A 31.07 31.07 0.0 0 0 530.48 513.30"/>
</g>
<path fill="#fd212d" d="&#10;  M 922.37 629.53&#10;  Q 921.47 629.55 921.63 627.76&#10;  Q 921.67 627.26 921.23 627.48&#10;  Q 921.14 627.53 921.13 627.43&#10;  Q 921.06 626.80 920.47 627.01&#10;  C 919.53 627.34 918.28 627.11 917.80 626.14&#10;  Q 917.16 624.81 915.85 624.31&#10;  Q 915.55 624.20 915.34 623.96&#10;  Q 913.89 622.37 912.25 620.76&#10;  Q 910.05 618.59 908.10 615.86&#10;  Q 906.03 612.97 904.18 611.01&#10;  Q 900.18 606.81 896.17 602.86&#10;  Q 895.78 602.48 894.44 600.60&#10;  Q 893.51 599.28 892.09 598.64&#10;  Q 891.68 598.46 891.57 598.03&#10;  Q 891.44 597.53 890.88 597.43&#10;  Q 890.58 597.37 890.38 597.15&#10;  L 881.98 588.17&#10;  Q 881.62 587.79 881.53 587.28&#10;  Q 881.41 586.63 880.88 586.41&#10;  Q 880.54 586.27 880.61 585.90&#10;  Q 880.73 585.25 880.59 584.62&#10;  A 1.50 1.49 -79.3 0 0 879.98 583.72&#10;  Q 878.67 582.81 877.66 581.72&#10;  Q 876.55 580.54 875.15 579.53&#10;  Q 873.58 578.40 872.63 576.77&#10;  Q 871.77 575.28 870.25 574.13&#10;  Q 869.82 573.80 869.73 573.27&#10;  Q 869.55 572.05 868.53 571.30&#10;  Q 868.25 571.09 867.89 571.10&#10;  Q 866.56 571.16 866.20 569.83&#10;  A 2.80 2.71 -75.6 0 0 865.51 568.62&#10;  Q 862.99 566.01 861.30 563.76&#10;  Q 860.97 563.32 860.47 563.12&#10;  Q 859.95 562.91 859.67 562.45&#10;  Q 858.86 561.09 857.51 560.23&#10;  Q 857.01 559.91 856.74 559.38&#10;  Q 856.11 558.13 855.00 557.17&#10;  Q 854.85 557.05 854.92 556.87&#10;  Q 854.94 556.82 854.97 556.79&#10;  Q 855.15 556.65 854.94 556.54&#10;  Q 853.04 555.58 851.90 554.24&#10;  Q 850.57 552.68 848.97 551.27&#10;  Q 848.62 550.97 848.50 550.53&#10;  Q 847.93 548.41 845.92 547.26&#10;  Q 845.79 547.19 845.69 547.09&#10;  Q 845.59 546.99 845.62 546.85&#10;  Q 845.75 546.15 845.08 546.37&#10;  Q 844.99 546.40 844.92 546.34&#10;  Q 844.78 546.21 844.71 546.03&#10;  Q 844.30 544.90 843.14 544.42&#10;  A 0.83 0.80 89.6 0 1 842.69 543.96&#10;  L 842.17 542.68&#10;  A 0.57 0.56 -2.2 0 0 841.82 542.36&#10;  Q 840.75 542.01 840.55 540.99&#10;  Q 840.43 540.42 840.01 539.97&#10;  Q 838.29 538.17 836.67 537.17&#10;  Q 836.03 536.77 835.66 536.26&#10;  Q 835.17 535.59 834.73 534.79&#10;  Q 834.54 534.44 834.21 534.22&#10;  Q 833.61 533.82 833.44 533.05&#10;  A 0.81 0.79 -85.0 0 0 832.98 532.49&#10;  Q 831.46 531.86 830.46 530.41&#10;  Q 830.35 530.25 830.37 530.05&#10;  Q 830.38 529.96 830.44 529.89&#10;  Q 830.96 529.29 830.16 529.36&#10;  Q 829.68 529.40 829.63 528.92&#10;  Q 829.56 528.23 828.87 528.26&#10;  Q 828.48 528.28 828.56 527.91&#10;  Q 828.70 527.31 828.08 527.37&#10;  Q 827.25 527.47 827.40 526.64&#10;  Q 827.44 526.46 827.26 526.41&#10;  Q 826.35 526.16 826.43 525.18&#10;  Q 826.47 524.70 826.05 524.48&#10;  C 825.00 523.93 823.91 523.15 823.42 522.02&#10;  Q 822.99 521.04 822.09 520.44&#10;  Q 821.78 520.22 821.69 519.85&#10;  Q 821.60 519.50 821.28 519.35&#10;  Q 819.47 518.51 819.48 516.88&#10;  Q 819.49 516.23 818.85 516.20&#10;  Q 817.39 516.14 816.33 514.86&#10;  Q 815.96 514.42 816.25 513.91&#10;  Q 816.44 513.55 816.04 513.54&#10;  Q 815.45 513.53 815.38 512.92&#10;  Q 815.35 512.69 815.13 512.62&#10;  Q 812.96 511.98 812.62 509.63&#10;  Q 812.56 509.23 812.18 509.36&#10;  Q 812.00 509.42 811.85 509.33&#10;  Q 811.75 509.26 811.68 509.17&#10;  Q 811.58 509.01 811.64 508.84&#10;  Q 811.77 508.47 811.40 508.35&#10;  Q 810.34 507.98 810.37 506.84&#10;  Q 810.38 506.43 809.99 506.31&#10;  Q 808.02 505.72 807.67 504.03&#10;  Q 807.60 503.65 807.36 503.34&#10;  Q 805.93 501.54 804.09 500.04&#10;  Q 802.10 498.42 800.59 496.41&#10;  Q 800.50 496.28 800.58 496.14&#10;  Q 800.65 496.02 800.66 495.89&#10;  Q 800.66 495.52 800.41 495.26&#10;  Q 798.58 493.41 796.86 491.65&#10;  Q 796.01 490.78 794.90 490.08&#10;  A 3.39 3.37 88.9 0 1 793.86 489.07&#10;  Q 792.67 487.24 791.20 486.04&#10;  Q 790.63 485.58 790.61 484.83&#10;  Q 790.59 484.38 790.24 484.09&#10;  Q 788.58 482.68 786.91 481.28&#10;  Q 785.24 479.89 783.98 478.11&#10;  Q 782.73 476.35 781.10 475.17&#10;  Q 780.07 474.41 779.21 473.44&#10;  Q 779.08 473.28 779.09 473.08&#10;  Q 779.09 472.99 779.16 472.94&#10;  Q 779.56 472.69 779.09 472.64&#10;  Q 777.63 472.50 776.90 470.84&#10;  Q 775.22 467.04 771.79 465.70&#10;  Q 771.50 465.58 771.26 465.36&#10;  Q 770.91 465.04 771.13 464.96&#10;  Q 771.80 464.72 771.26 464.22&#10;  Q 769.84 462.92 768.55 461.67&#10;  Q 768.39 461.51 768.34 461.29&#10;  Q 768.33 461.21 768.38 461.15&#10;  Q 768.74 460.73 768.25 460.39&#10;  Q 766.95 459.49 765.69 458.56&#10;  Q 765.63 458.52 765.63 458.45&#10;  L 765.63 458.13&#10;  Q 765.63 457.81 765.40 457.59&#10;  Q 762.68 454.97 760.39 452.41&#10;  Q 759.34 451.23 758.66 449.71&#10;  Q 758.48 449.28 758.10 449.01&#10;  L 755.07 446.84&#10;  Q 754.99 446.78 754.97 446.69&#10;  L 754.87 446.29&#10;  Q 754.78 445.94 754.45 445.81&#10;  Q 753.63 445.49 753.66 444.62&#10;  Q 753.67 444.42 753.46 444.41&#10;  Q 752.52 444.39 752.31 443.28&#10;  A 1.74 1.67 19.3 0 0 751.89 442.45&#10;  Q 750.41 440.83 748.12 439.41&#10;  Q 747.67 439.13 747.45 438.66&#10;  Q 747.24 438.22 747.51 437.84&#10;  Q 747.82 437.41 747.31 437.28&#10;  Q 746.88 437.18 746.73 436.76&#10;  Q 746.64 436.48 746.41 436.25&#10;  Q 745.34 435.14 744.07 434.40&#10;  Q 743.27 433.93 743.01 432.96&#10;  Q 742.96 432.74 743.17 432.67&#10;  Q 743.58 432.52 743.15 432.59&#10;  Q 742.95 432.62 742.75 432.60&#10;  Q 742.47 432.57 742.39 432.29&#10;  Q 742.33 432.11 742.36 431.91&#10;  Q 742.40 431.69 742.18 431.64&#10;  Q 740.61 431.32 740.28 429.73&#10;  Q 740.26 429.65 740.21 429.59&#10;  L 738.30 427.74&#10;  Q 738.23 427.67 738.14 427.63&#10;  Q 737.40 427.38 737.57 426.64&#10;  Q 737.67 426.23 737.26 426.35&#10;  Q 737.10 426.40 736.96 426.36&#10;  Q 736.83 426.33 736.73 426.24&#10;  Q 736.43 425.96 736.55 425.67&#10;  Q 736.68 425.35 736.36 425.22&#10;  Q 735.61 424.93 735.62 424.16&#10;  Q 735.62 423.67 735.28 423.33&#10;  L 726.03 413.90&#10;  A 1.33 1.31 -72.3 0 1 725.68 413.21&#10;  Q 725.51 412.27 724.67 411.62&#10;  Q 724.26 411.30 723.75 411.39&#10;  Q 723.45 411.45 723.18 411.30&#10;  Q 722.68 411.03 722.49 410.47&#10;  Q 721.77 408.38 720.36 406.73&#10;  Q 720.25 406.60 720.10 406.53&#10;  Q 719.84 406.41 719.57 406.31&#10;  Q 719.10 406.15 718.78 405.78&#10;  L 711.14 396.95&#10;  Q 710.81 396.56 710.69 396.06&#10;  Q 710.40 394.79 708.99 394.34&#10;  Q 708.54 394.20 708.40 393.75&#10;  A 0.61 0.61 0.0 0 0 707.69 393.33&#10;  Q 707.15 393.45 707.13 392.91&#10;  Q 707.11 392.47 706.69 392.33&#10;  Q 705.28 391.87 705.39 390.37&#10;  A 1.95 1.95 0.0 0 0 703.76 388.30&#10;  Q 702.59 388.11 702.61 386.98&#10;  Q 702.61 386.77 702.54 386.57&#10;  Q 702.44 386.31 702.21 386.37&#10;  Q 701.83 386.47 701.56 386.19&#10;  Q 698.41 382.99 695.75 379.41&#10;  Q 694.97 378.36 694.02 377.73&#10;  Q 692.65 376.81 691.87 375.55&#10;  Q 690.37 373.12 688.17 371.31&#10;  Q 687.80 371.01 687.33 370.85&#10;  Q 686.70 370.63 686.72 369.93&#10;  A 0.99 0.98 -67.9 0 0 686.41 369.19&#10;  Q 683.04 366.06 680.68 362.74&#10;  Q 679.65 361.29 678.14 360.13&#10;  Q 677.62 359.72 677.58 359.06&#10;  Q 677.53 358.28 676.77 358.35&#10;  Q 676.22 358.39 675.98 357.90&#10;  Q 675.40 356.68 674.24 355.85&#10;  C 672.35 354.49 670.80 352.46 669.13 350.81&#10;  Q 668.77 350.45 668.66 349.95&#10;  Q 668.40 348.69 667.30 347.99&#10;  Q 666.81 347.67 666.69 347.10&#10;  Q 666.38 345.53 664.90 345.33&#10;  A 1.13 1.12 -18.6 0 1 664.25 345.01&#10;  L 661.22 341.97&#10;  Q 660.88 341.64 660.87 341.17&#10;  Q 660.85 340.49 660.26 340.00&#10;  Q 658.37 338.42 656.22 335.89&#10;  Q 655.93 335.54 655.83 335.10&#10;  Q 655.60 334.05 654.61 333.35&#10;  Q 654.24 333.09 653.79 333.08&#10;  Q 652.73 333.06 652.87 332.02&#10;  A 1.00 1.00 0.0 0 0 651.87 330.88&#10;  Q 650.80 330.89 650.91 329.84&#10;  Q 650.96 329.30 650.55 328.95&#10;  Q 648.67 327.33 647.29 325.62&#10;  Q 645.02 322.81 644.27 322.04&#10;  Q 641.93 319.62 639.35 317.09&#10;  C 638.54 316.31 638.02 315.32 637.38 314.42&#10;  Q 637.08 314.01 636.62 313.79&#10;  Q 635.18 313.12 635.10 311.70&#10;  A 0.86 0.85 -77.2 0 0 634.65 310.98&#10;  Q 633.13 310.16 632.99 308.81&#10;  Q 632.94 308.41 632.55 308.33&#10;  Q 628.52 307.57 625.24 308.33&#10;  Q 624.75 308.44 624.29 308.23&#10;  Q 623.04 307.64 621.53 307.59&#10;  Q 621.31 307.58 621.31 307.35&#10;  L 621.32 307.10&#10;  Q 621.32 307.07 621.35 307.07&#10;  Q 628.52 307.27 634.92 307.06&#10;  Q 638.12 306.96 641.92 305.60&#10;  Q 642.74 305.31 643.65 305.36&#10;  Q 644.59 305.41 645.16 304.68&#10;  A 0.98 0.98 0.0 0 1 645.87 304.30&#10;  Q 646.54 304.25 646.98 303.77&#10;  Q 647.48 303.23 648.14 302.85&#10;  Q 649.28 302.20 650.35 301.54&#10;  Q 651.45 300.87 652.15 299.62&#10;  Q 653.75 296.72 655.71 294.05&#10;  Q 657.46 291.66 657.90 288.85&#10;  Q 658.54 284.78 658.12 281.05&#10;  Q 657.83 278.43 656.86 276.16&#10;  Q 656.08 274.36 656.42 272.05&#10;  Q 656.50 271.50 656.25 270.99&#10;  Q 655.42 269.26 655.67 267.29&#10;  Q 655.78 266.38 655.17 267.07&#10;  Q 653.93 268.46 653.41 270.34&#10;  Q 650.30 258.90 640.98 255.19&#10;  Q 636.82 253.54 625.31 253.44&#10;  Q 587.67 253.12 550.06 253.24&#10;  Q 549.28 252.74 547.96 253.03&#10;  Q 547.47 253.14 547.06 252.84&#10;  Q 544.88 251.23 543.65 251.20&#10;  Q 540.92 251.15 537.94 251.35&#10;  A 0.52 0.51 67.5 0 1 537.51 251.17&#10;  Q 537.33 250.97 537.06 250.96&#10;  Q 531.43 250.71 526.09 250.83&#10;  Q 524.05 250.88 521.92 250.41&#10;  Q 519.76 249.94 517.63 249.80&#10;  Q 515.32 249.64 513.42 248.63&#10;  Q 512.83 248.31 513.39 247.94&#10;  Q 513.72 247.72 514.03 247.14&#10;  A 1.21 1.14 61.8 0 0 514.17 246.62&#10;  Q 514.21 242.40 515.10 239.04&#10;  Q 516.15 235.07 516.50 231.68&#10;  Q 517.15 225.20 517.44 219.08&#10;  Q 517.58 216.07 518.05 212.79&#10;  Q 518.48 209.83 518.38 206.47&#10;  Q 518.34 204.94 519.20 203.75&#10;  Q 520.01 202.63 520.27 201.25&#10;  Q 520.97 197.45 521.18 193.92&#10;  Q 521.40 190.18 522.46 185.83&#10;  C 523.05 183.39 522.90 180.96 522.88 178.48&#10;  Q 522.87 178.00 523.13 177.59&#10;  Q 524.50 175.46 524.00 172.64&#10;  Q 523.59 170.30 522.60 167.93&#10;  Q 522.09 166.71 522.03 165.46&#10;  Q 521.91 162.50 521.81 159.68&#10;  Q 521.76 158.24 521.08 156.93&#10;  Q 520.47 155.75 519.95 154.50&#10;  Q 519.54 153.53 518.62 152.74&#10;  Q 517.64 151.90 516.75 151.11&#10;  Q 516.38 150.78 516.21 150.30&#10;  Q 515.67 148.77 514.32 148.02&#10;  Q 513.07 147.33 512.09 146.31&#10;  Q 508.20 142.29 501.75 141.57&#10;  Q 500.74 141.45 499.69 141.57&#10;  Q 498.50 141.70 497.39 141.57&#10;  Q 497.20 141.54 497.24 141.36&#10;  Q 497.25 141.31 497.28 141.27&#10;  Q 497.58 140.90 497.10 140.88&#10;  Q 492.32 140.62 489.47 141.65&#10;  Q 488.31 142.07 487.03 142.44&#10;  Q 485.25 142.96 484.56 143.30&#10;  C 483.54 143.81 482.43 144.27 481.70 145.18&#10;  Q 480.67 146.47 479.04 147.30&#10;  Q 478.58 147.54 478.33 148.00&#10;  Q 477.35 149.81 475.73 151.28&#10;  Q 475.36 151.62 475.22 152.09&#10;  Q 474.96 152.94 474.68 153.77&#10;  Q 474.60 154.01 473.82 155.32&#10;  Q 473.35 156.12 473.11 157.02&#10;  Q 472.57 159.07 471.95 161.38&#10;  Q 471.69 162.32 472.03 163.30&#10;  A 0.41 0.40 -33.2 0 1 471.94 163.71&#10;  Q 471.73 163.94 471.40 164.00&#10;  Q 470.83 164.11 470.80 164.69&#10;  L 470.53 169.79&#10;  Q 470.50 170.28 470.32 170.73&#10;  Q 469.21 173.50 469.60 176.51&#10;  A 1.64 1.60 -36.5 0 1 469.45 177.45&#10;  Q 468.62 179.20 468.88 181.08&#10;  Q 469.18 183.22 468.07 184.83&#10;  Q 467.78 185.25 467.73 185.76&#10;  Q 467.31 189.44 467.11 193.49&#10;  Q 467.09 193.88 466.82 194.20&#10;  Q 466.23 194.89 466.34 193.98&#10;  Q 466.62 191.65 466.74 189.23&#10;  C 466.80 188.00 466.39 186.67 466.96 185.58&#10;  Q 467.19 185.13 467.21 184.62&#10;  Q 467.35 180.93 467.59 176.80&#10;  Q 467.62 176.13 468.23 173.82&#10;  Q 468.62 172.36 468.38 170.72&#10;  A 1.43 1.42 -33.7 0 1 468.58 169.75&#10;  Q 469.05 169.02 468.88 168.10&#10;  A 1.13 1.09 48.1 0 1 468.90 167.55&#10;  L 469.42 165.74&#10;  Q 469.55 165.29 469.40 164.86&#10;  Q 468.87 163.30 469.20 161.71&#10;  Q 469.30 161.23 469.63 160.89&#10;  C 470.33 160.19 469.47 158.30 470.54 157.05&#10;  Q 470.86 156.69 471.04 156.25&#10;  L 473.37 150.74&#10;  Q 473.57 150.27 474.01 150.01&#10;  Q 475.43 149.17 476.17 147.70&#10;  Q 476.38 147.28 476.15 146.87&#10;  Q 476.01 146.63 476.27 146.34&#10;  Q 476.60 145.96 476.99 146.28&#10;  Q 477.17 146.43 477.42 146.43&#10;  Q 477.74 146.42 477.60 146.13&#10;  Q 477.51 145.96 477.34 145.86&#10;  A 0.39 0.39 0.0 0 1 477.39 145.16&#10;  Q 477.74 145.02 478.03 145.26&#10;  Q 478.49 145.64 478.22 145.11&#10;  Q 478.06 144.80 478.14 144.48&#10;  Q 478.22 144.19 478.51 144.12&#10;  Q 478.74 144.05 478.93 144.20&#10;  Q 479.56 144.72 479.19 143.99&#10;  Q 478.91 143.45 479.44 143.16&#10;  Q 479.51 143.13 479.58 143.10&#10;  Q 479.77 143.04 479.91 143.18&#10;  Q 480.51 143.75 480.21 142.98&#10;  Q 480.03 142.52 480.22 142.04&#10;  Q 480.92 140.24 479.60 139.26&#10;  Q 478.79 138.67 478.06 137.92&#10;  Q 477.07 136.91 476.39 135.80&#10;  Q 475.57 134.47 474.61 133.38&#10;  Q 473.17 131.77 471.97 130.04&#10;  Q 470.70 128.23 468.70 127.06&#10;  A 1.86 1.78 -88.8 0 1 468.01 126.31&#10;  Q 467.47 125.24 466.55 124.55&#10;  Q 465.56 123.81 464.80 122.88&#10;  Q 463.03 120.73 461.24 118.70&#10;  Q 460.92 118.34 460.46 118.20&#10;  Q 459.98 118.05 459.66 117.67&#10;  Q 458.67 116.50 457.62 115.61&#10;  Q 456.93 115.03 456.60 114.08&#10;  Q 456.27 113.14 455.73 112.32&#10;  Q 455.48 111.94 455.06 111.78&#10;  Q 453.22 111.05 451.98 109.46&#10;  Q 450.88 108.05 449.37 107.03&#10;  Q 448.93 106.73 448.70 106.25&#10;  Q 447.84 104.41 446.15 103.12&#10;  Q 445.74 102.81 445.61 102.31&#10;  Q 445.32 101.20 444.77 100.72&#10;  Q 443.32 99.45 441.99 97.88&#10;  Q 441.67 97.51 441.61 97.02&#10;  Q 441.49 96.10 440.81 95.47&#10;  Q 439.51 94.25 438.29 93.16&#10;  Q 437.27 92.25 436.24 91.65&#10;  Q 434.54 90.65 433.80 89.04&#10;  Q 433.22 87.80 432.18 86.80&#10;  Q 431.23 85.87 430.50 84.74&#10;  Q 428.92 82.30 426.37 80.73&#10;  Q 426.04 80.53 425.99 80.14&#10;  A 1.54 1.52 18.1 0 0 425.51 79.21&#10;  Q 422.19 76.18 419.78 72.62&#10;  Q 418.51 70.73 416.63 69.14&#10;  Q 414.75 67.54 413.17 65.53&#10;  Q 413.14 65.48 413.13 65.42&#10;  Q 413.10 65.27 413.15 65.13&#10;  Q 413.28 64.71 412.85 64.63&#10;  Q 411.96 64.46 411.93 63.31&#10;  Q 411.92 62.75 412.46 62.62&#10;  Q 413.29 62.40 412.98 61.88&#10;  Q 421.76 61.49 430.58 61.21&#10;  Q 500.82 59.00 566.50 61.17&#10;  Q 606.72 62.49 646.62 67.28&#10;  Q 683.72 71.74 718.79 81.78&#10;  C 742.53 88.58 765.97 98.10 787.21 110.63&#10;  Q 849.09 147.12 883.03 210.18&#10;  C 907.65 255.92 918.18 308.23 923.19 359.57&#10;  Q 926.97 398.21 927.70 440.82&#10;  Q 928.53 488.72 927.80 538.50&#10;  C 927.36 568.38 925.71 599.34 922.37 629.53&#10;  Z"/>
<path fill="#fe1835" d="&#10;  M 412.98 61.88&#10;  Q 413.29 62.40 412.46 62.62&#10;  Q 411.92 62.75 411.93 63.31&#10;  Q 411.96 64.46 412.85 64.63&#10;  Q 413.28 64.71 413.15 65.13&#10;  Q 413.10 65.27 413.13 65.42&#10;  Q 413.14 65.48 413.17 65.53&#10;  Q 414.75 67.54 416.63 69.14&#10;  Q 418.51 70.73 419.78 72.62&#10;  Q 422.19 76.18 425.51 79.21&#10;  A 1.54 1.52 18.1 0 1 425.99 80.14&#10;  Q 426.04 80.53 426.37 80.73&#10;  Q 428.92 82.30 430.50 84.74&#10;  Q 431.23 85.87 432.18 86.80&#10;  Q 433.22 87.80 433.80 89.04&#10;  Q 434.54 90.65 436.24 91.65&#10;  Q 437.27 92.25 438.29 93.16&#10;  Q 439.51 94.25 440.81 95.47&#10;  Q 441.49 96.10 441.61 97.02&#10;  Q 441.67 97.51 441.99 97.88&#10;  Q 443.32 99.45 444.77 100.72&#10;  Q 445.32 101.20 445.61 102.31&#10;  Q 445.74 102.81 446.15 103.12&#10;  Q 447.84 104.41 448.70 106.25&#10;  Q 448.93 106.73 449.37 107.03&#10;  Q 450.88 108.05 451.98 109.46&#10;  Q 453.22 111.05 455.06 111.78&#10;  Q 455.48 111.94 455.73 112.32&#10;  Q 456.27 113.14 456.60 114.08&#10;  Q 456.93 115.03 457.62 115.61&#10;  Q 458.67 116.50 459.66 117.67&#10;  Q 459.98 118.05 460.46 118.20&#10;  Q 460.92 118.34 461.24 118.70&#10;  Q 463.03 120.73 464.80 122.88&#10;  Q 465.56 123.81 466.55 124.55&#10;  Q 467.47 125.24 468.01 126.31&#10;  A 1.86 1.78 -88.8 0 0 468.70 127.06&#10;  Q 470.70 128.23 471.97 130.04&#10;  Q 473.17 131.77 474.61 133.38&#10;  Q 475.57 134.47 476.39 135.80&#10;  Q 477.07 136.91 478.06 137.92&#10;  Q 478.79 138.67 479.60 139.26&#10;  Q 480.92 140.24 480.22 142.04&#10;  Q 480.03 142.52 480.21 142.98&#10;  Q 480.51 143.75 479.91 143.18&#10;  Q 479.77 143.04 479.58 143.10&#10;  Q 479.51 143.13 479.44 143.16&#10;  Q 478.91 143.45 479.19 143.99&#10;  Q 479.56 144.72 478.93 144.20&#10;  Q 478.74 144.05 478.51 144.12&#10;  Q 478.22 144.19 478.14 144.48&#10;  Q 478.06 144.80 478.22 145.11&#10;  Q 478.49 145.64 478.03 145.26&#10;  Q 477.74 145.02 477.39 145.16&#10;  A 0.39 0.39 0.0 0 0 477.34 145.86&#10;  Q 477.51 145.96 477.60 146.13&#10;  Q 477.74 146.42 477.42 146.43&#10;  Q 477.17 146.43 476.99 146.28&#10;  Q 476.60 145.96 476.27 146.34&#10;  Q 476.01 146.63 476.15 146.87&#10;  Q 476.38 147.28 476.17 147.70&#10;  Q 475.43 149.17 474.01 150.01&#10;  Q 473.57 150.27 473.37 150.74&#10;  L 471.04 156.25&#10;  Q 470.86 156.69 470.54 157.05&#10;  C 469.47 158.30 470.33 160.19 469.63 160.89&#10;  Q 469.30 161.23 469.20 161.71&#10;  Q 468.87 163.30 469.40 164.86&#10;  Q 469.55 165.29 469.42 165.74&#10;  L 468.90 167.55&#10;  A 1.13 1.09 48.1 0 0 468.88 168.10&#10;  Q 469.05 169.02 468.58 169.75&#10;  A 1.43 1.42 -33.7 0 0 468.38 170.72&#10;  Q 468.62 172.36 468.23 173.82&#10;  Q 467.62 176.13 467.59 176.80&#10;  Q 467.35 180.93 467.21 184.62&#10;  Q 467.19 185.13 466.96 185.58&#10;  C 466.39 186.67 466.80 188.00 466.74 189.23&#10;  Q 466.62 191.65 466.34 193.98&#10;  Q 466.23 194.89 466.82 194.20&#10;  Q 467.09 193.88 467.11 193.49&#10;  Q 467.31 189.44 467.73 185.76&#10;  Q 467.78 185.25 468.07 184.83&#10;  Q 469.18 183.22 468.88 181.08&#10;  Q 468.62 179.20 469.45 177.45&#10;  A 1.64 1.60 -36.5 0 0 469.60 176.51&#10;  Q 469.21 173.50 470.32 170.73&#10;  Q 470.50 170.28 470.53 169.79&#10;  L 470.80 164.69&#10;  Q 470.83 164.11 471.40 164.00&#10;  Q 471.73 163.94 471.94 163.71&#10;  A 0.41 0.40 -33.2 0 0 472.03 163.30&#10;  Q 471.69 162.32 471.95 161.38&#10;  Q 472.57 159.07 473.11 157.02&#10;  Q 473.35 156.12 473.82 155.32&#10;  Q 474.60 154.01 474.68 153.77&#10;  Q 474.96 152.94 475.22 152.09&#10;  Q 475.36 151.62 475.73 151.28&#10;  Q 477.35 149.81 478.33 148.00&#10;  Q 478.58 147.54 479.04 147.30&#10;  Q 480.67 146.47 481.70 145.18&#10;  C 482.43 144.27 483.54 143.81 484.56 143.30&#10;  Q 485.25 142.96 487.03 142.44&#10;  Q 488.31 142.07 489.47 141.65&#10;  Q 492.32 140.62 497.10 140.88&#10;  Q 497.58 140.90 497.28 141.27&#10;  Q 497.25 141.31 497.24 141.36&#10;  Q 497.20 141.54 497.39 141.57&#10;  Q 498.50 141.70 499.69 141.57&#10;  Q 500.74 141.45 501.75 141.57&#10;  Q 508.20 142.29 512.09 146.31&#10;  Q 513.07 147.33 514.32 148.02&#10;  Q 515.67 148.77 516.21 150.30&#10;  Q 516.38 150.78 516.75 151.11&#10;  Q 517.64 151.90 518.62 152.74&#10;  Q 519.54 153.53 519.95 154.50&#10;  Q 520.47 155.75 521.08 156.93&#10;  Q 521.76 158.24 521.81 159.68&#10;  Q 521.91 162.50 522.03 165.46&#10;  Q 522.09 166.71 522.60 167.93&#10;  Q 523.59 170.30 524.00 172.64&#10;  Q 524.50 175.46 523.13 177.59&#10;  Q 522.87 178.00 522.88 178.48&#10;  C 522.90 180.96 523.05 183.39 522.46 185.83&#10;  Q 521.40 190.18 521.18 193.92&#10;  Q 520.97 197.45 520.27 201.25&#10;  Q 520.01 202.63 519.20 203.75&#10;  Q 518.34 204.94 518.38 206.47&#10;  Q 518.48 209.83 518.05 212.79&#10;  Q 517.58 216.07 517.44 219.08&#10;  Q 517.15 225.20 516.50 231.68&#10;  Q 516.15 235.07 515.10 239.04&#10;  Q 514.21 242.40 514.17 246.62&#10;  A 1.21 1.14 61.8 0 1 514.03 247.14&#10;  Q 513.72 247.72 513.39 247.94&#10;  Q 512.83 248.31 513.42 248.63&#10;  Q 515.32 249.64 517.63 249.80&#10;  Q 519.76 249.94 521.92 250.41&#10;  Q 524.05 250.88 526.09 250.83&#10;  Q 531.43 250.71 537.06 250.96&#10;  Q 537.33 250.97 537.51 251.17&#10;  A 0.52 0.51 67.5 0 0 537.94 251.35&#10;  Q 540.92 251.15 543.65 251.20&#10;  Q 544.88 251.23 547.06 252.84&#10;  Q 547.47 253.14 547.96 253.03&#10;  Q 549.28 252.74 550.06 253.24&#10;  Q 545.95 253.55 541.86 253.46&#10;  Q 537.44 253.35 533.59 253.45&#10;  Q 525.95 253.65 517.20 252.82&#10;  C 511.12 252.24 507.44 248.96 508.38 242.62&#10;  Q 512.85 212.64 518.42 174.54&#10;  Q 519.86 164.66 518.95 160.85&#10;  Q 516.62 151.05 507.87 146.64&#10;  Q 504.40 144.89 498.88 144.15&#10;  Q 491.19 143.12 485.87 145.82&#10;  C 478.21 149.71 475.13 156.08 473.92 164.66&#10;  Q 467.86 207.57 462.30 247.16&#10;  Q 462.11 248.55 461.47 249.91&#10;  C 460.20 252.61 455.38 253.34 452.71 253.30&#10;  Q 409.93 252.56 374.42 253.06&#10;  C 363.38 253.22 354.75 261.26 353.74 272.21&#10;  C 352.75 282.95 355.64 291.88 366.16 296.63&#10;  Q 369.54 298.15 375.40 298.24&#10;  Q 407.17 298.72 443.88 298.42&#10;  Q 448.09 298.38 452.58 298.65&#10;  A 1.68 1.67 0.8 0 1 454.16 300.26&#10;  Q 454.25 302.54 453.98 304.72&#10;  Q 452.85 313.89 451.34 323.56&#10;  C 449.86 332.99 443.12 335.72 435.62 339.56&#10;  Q 423.08 345.98 412.76 352.20&#10;  Q 399.19 360.36 386.12 372.30&#10;  Q 378.57 379.19 372.47 387.05&#10;  Q 349.61 416.53 342.03 449.79&#10;  Q 332.98 489.53 348.09 528.58&#10;  Q 354.66 545.56 365.10 560.93&#10;  Q 372.60 571.95 381.36 580.00&#10;  Q 393.85 591.47 408.46 599.21&#10;  C 414.75 602.54 421.14 604.86 427.62 607.53&#10;  Q 434.97 610.56 442.87 611.96&#10;  C 462.26 615.41 482.17 615.72 501.09 610.31&#10;  C 506.56 608.75 512.27 607.81 514.96 614.28&#10;  Q 515.88 616.49 514.97 622.05&#10;  Q 513.58 630.50 512.36 638.43&#10;  Q 511.27 645.57 506.23 647.20&#10;  Q 501.34 648.79 497.73 648.76&#10;  C 448.17 648.45 401.13 648.24 353.00 648.56&#10;  C 342.94 648.63 333.87 656.39 332.77 666.29&#10;  C 332.20 671.39 332.01 677.83 334.62 682.46&#10;  C 339.62 691.34 346.72 693.85 356.68 693.89&#10;  Q 424.42 694.16 495.30 694.10&#10;  C 500.88 694.10 503.86 698.69 503.10 703.75&#10;  Q 496.85 745.11 491.37 784.83&#10;  C 490.42 791.72 491.35 797.30 495.70 802.47&#10;  Q 500.37 808.02 507.40 809.44&#10;  C 514.84 810.93 521.39 811.36 527.84 806.52&#10;  Q 534.59 801.45 535.93 792.42&#10;  Q 543.13 743.84 548.83 702.23&#10;  Q 549.53 697.13 553.16 695.23&#10;  Q 555.22 694.16 559.99 694.19&#10;  Q 603.31 694.45 648.50 694.45&#10;  C 658.84 694.45 666.32 694.99 673.42 687.32&#10;  Q 678.44 681.90 678.80 674.00&#10;  Q 679.13 666.76 677.78 663.16&#10;  Q 672.52 649.09 657.18 648.97&#10;  Q 612.93 648.61 570.08 648.91&#10;  Q 564.98 648.95 563.29 648.20&#10;  Q 557.04 645.43 558.13 637.83&#10;  Q 565.86 584.23 573.48 531.30&#10;  Q 574.95 521.08 574.55 516.08&#10;  Q 573.73 505.95 573.21 502.60&#10;  Q 569.78 480.24 555.94 464.24&#10;  C 544.37 450.87 528.45 442.40 510.95 439.78&#10;  Q 502.09 438.46 490.97 439.16&#10;  C 486.90 439.42 483.35 438.06 482.03 433.90&#10;  Q 481.39 431.87 482.25 426.00&#10;  Q 485.14 406.20 487.86 386.01&#10;  C 489.64 372.74 499.12 371.26 510.20 372.18&#10;  Q 526.37 373.52 545.44 379.73&#10;  Q 555.75 383.09 563.78 387.18&#10;  Q 601.10 406.18 620.64 442.61&#10;  Q 639.95 478.60 637.87 519.94&#10;  Q 636.97 537.79 631.18 555.09&#10;  Q 629.12 561.27 628.98 565.30&#10;  Q 628.80 570.48 631.31 575.80&#10;  Q 634.43 582.42 642.08 585.90&#10;  Q 652.58 590.66 663.26 584.17&#10;  C 668.49 580.99 671.31 575.02 673.13 569.26&#10;  Q 677.23 556.34 679.36 544.63&#10;  Q 687.84 497.94 672.57 451.75&#10;  Q 669.28 441.81 665.48 433.61&#10;  Q 639.96 378.50 587.99 350.21&#10;  Q 579.04 345.34 570.10 341.88&#10;  Q 556.25 336.52 544.44 333.45&#10;  Q 524.75 328.33 504.95 327.93&#10;  Q 502.97 327.89 501.43 326.67&#10;  Q 496.64 322.88 497.72 316.46&#10;  Q 498.67 310.76 499.48 305.16&#10;  C 499.77 303.13 500.60 301.23 501.81 299.57&#10;  A 2.19 2.17 17.9 0 1 503.57 298.68&#10;  Q 567.02 298.82 625.25 298.90&#10;  Q 633.09 298.91 635.49 298.66&#10;  C 645.22 297.64 653.10 288.87 653.53 279.00&#10;  Q 653.66 276.10 653.41 270.34&#10;  Q 653.93 268.46 655.17 267.07&#10;  Q 655.78 266.38 655.67 267.29&#10;  Q 655.42 269.26 656.25 270.99&#10;  Q 656.50 271.50 656.42 272.05&#10;  Q 656.08 274.36 656.86 276.16&#10;  Q 657.83 278.43 658.12 281.05&#10;  Q 658.54 284.78 657.90 288.85&#10;  Q 657.46 291.66 655.71 294.05&#10;  Q 653.75 296.72 652.15 299.62&#10;  Q 651.45 300.87 650.35 301.54&#10;  Q 649.28 302.20 648.14 302.85&#10;  Q 647.48 303.23 646.98 303.77&#10;  Q 646.54 304.25 645.87 304.30&#10;  A 0.98 0.98 0.0 0 0 645.16 304.68&#10;  Q 644.59 305.41 643.65 305.36&#10;  Q 642.74 305.31 641.92 305.60&#10;  Q 638.12 306.96 634.92 307.06&#10;  Q 628.52 307.27 621.35 307.07&#10;  Q 621.32 307.07 621.32 307.10&#10;  L 621.31 307.35&#10;  Q 621.31 307.58 621.53 307.59&#10;  Q 623.04 307.64 624.29 308.23&#10;  Q 624.75 308.44 625.24 308.33&#10;  Q 628.52 307.57 632.55 308.33&#10;  Q 632.94 308.41 632.99 308.81&#10;  Q 633.13 310.16 634.65 310.98&#10;  A 0.86 0.85 -77.2 0 1 635.10 311.70&#10;  Q 635.18 313.12 636.62 313.79&#10;  Q 637.08 314.01 637.38 314.42&#10;  C 638.02 315.32 638.54 316.31 639.35 317.09&#10;  Q 641.93 319.62 644.27 322.04&#10;  Q 645.02 322.81 647.29 325.62&#10;  Q 648.67 327.33 650.55 328.95&#10;  Q 650.96 329.30 650.91 329.84&#10;  Q 650.80 330.89 651.87 330.88&#10;  A 1.00 1.00 0.0 0 1 652.87 332.02&#10;  Q 652.73 333.06 653.79 333.08&#10;  Q 654.24 333.09 654.61 333.35&#10;  Q 655.60 334.05 655.83 335.10&#10;  Q 655.93 335.54 656.22 335.89&#10;  Q 658.37 338.42 660.26 340.00&#10;  Q 660.85 340.49 660.87 341.17&#10;  Q 660.88 341.64 661.22 341.97&#10;  L 664.25 345.01&#10;  A 1.13 1.12 -18.6 0 0 664.90 345.33&#10;  Q 666.38 345.53 666.69 347.10&#10;  Q 666.81 347.67 667.30 347.99&#10;  Q 668.40 348.69 668.66 349.95&#10;  Q 668.77 350.45 669.13 350.81&#10;  C 670.80 352.46 672.35 354.49 674.24 355.85&#10;  Q 675.40 356.68 675.98 357.90&#10;  Q 676.22 358.39 676.77 358.35&#10;  Q 677.53 358.28 677.58 359.06&#10;  Q 677.62 359.72 678.14 360.13&#10;  Q 679.65 361.29 680.68 362.74&#10;  Q 683.04 366.06 686.41 369.19&#10;  A 0.99 0.98 -67.9 0 1 686.72 369.93&#10;  Q 686.70 370.63 687.33 370.85&#10;  Q 687.80 371.01 688.17 371.31&#10;  Q 690.37 373.12 691.87 375.55&#10;  Q 692.65 376.81 694.02 377.73&#10;  Q 694.97 378.36 695.75 379.41&#10;  Q 698.41 382.99 701.56 386.19&#10;  Q 701.83 386.47 702.21 386.37&#10;  Q 702.44 386.31 702.54 386.57&#10;  Q 702.61 386.77 702.61 386.98&#10;  Q 702.59 388.11 703.76 388.30&#10;  A 1.95 1.95 0.0 0 1 705.39 390.37&#10;  Q 705.28 391.87 706.69 392.33&#10;  Q 707.11 392.47 707.13 392.91&#10;  Q 707.15 393.45 707.69 393.33&#10;  A 0.61 0.61 0.0 0 1 708.40 393.75&#10;  Q 708.54 394.20 708.99 394.34&#10;  Q 710.40 394.79 710.69 396.06&#10;  Q 710.81 396.56 711.14 396.95&#10;  L 718.78 405.78&#10;  Q 719.10 406.15 719.57 406.31&#10;  Q 719.84 406.41 720.10 406.53&#10;  Q 720.25 406.60 720.36 406.73&#10;  Q 721.77 408.38 722.49 410.47&#10;  Q 722.68 411.03 723.18 411.30&#10;  Q 723.45 411.45 723.75 411.39&#10;  Q 724.26 411.30 724.67 411.62&#10;  Q 725.51 412.27 725.68 413.21&#10;  A 1.33 1.31 -72.3 0 0 726.03 413.90&#10;  L 735.28 423.33&#10;  Q 735.62 423.67 735.62 424.16&#10;  Q 735.61 424.93 736.36 425.22&#10;  Q 736.68 425.35 736.55 425.67&#10;  Q 736.43 425.96 736.73 426.24&#10;  Q 736.83 426.33 736.96 426.36&#10;  Q 737.10 426.40 737.26 426.35&#10;  Q 737.67 426.23 737.57 426.64&#10;  Q 737.40 427.38 738.14 427.63&#10;  Q 738.23 427.67 738.30 427.74&#10;  L 740.21 429.59&#10;  Q 740.26 429.65 740.28 429.73&#10;  Q 740.61 431.32 742.18 431.64&#10;  Q 742.40 431.69 742.36 431.91&#10;  Q 742.33 432.11 742.39 432.29&#10;  Q 742.47 432.57 742.75 432.60&#10;  Q 742.95 432.62 743.15 432.59&#10;  Q 743.58 432.52 743.17 432.67&#10;  Q 742.96 432.74 743.01 432.96&#10;  Q 743.27 433.93 744.07 434.40&#10;  Q 745.34 435.14 746.41 436.25&#10;  Q 746.64 436.48 746.73 436.76&#10;  Q 746.88 437.18 747.31 437.28&#10;  Q 747.82 437.41 747.51 437.84&#10;  Q 747.24 438.22 747.45 438.66&#10;  Q 747.67 439.13 748.12 439.41&#10;  Q 750.41 440.83 751.89 442.45&#10;  A 1.74 1.67 19.3 0 1 752.31 443.28&#10;  Q 752.52 444.39 753.46 444.41&#10;  Q 753.67 444.42 753.66 444.62&#10;  Q 753.63 445.49 754.45 445.81&#10;  Q 754.78 445.94 754.87 446.29&#10;  L 754.97 446.69&#10;  Q 754.99 446.78 755.07 446.84&#10;  L 758.10 449.01&#10;  Q 758.48 449.28 758.66 449.71&#10;  Q 759.34 451.23 760.39 452.41&#10;  Q 762.68 454.97 765.40 457.59&#10;  Q 765.63 457.81 765.63 458.13&#10;  L 765.63 458.45&#10;  Q 765.63 458.52 765.69 458.56&#10;  Q 766.95 459.49 768.25 460.39&#10;  Q 768.74 460.73 768.38 461.15&#10;  Q 768.33 461.21 768.34 461.29&#10;  Q 768.39 461.51 768.55 461.67&#10;  Q 769.84 462.92 771.26 464.22&#10;  Q 771.80 464.72 771.13 464.96&#10;  Q 770.91 465.04 771.26 465.36&#10;  Q 771.50 465.58 771.79 465.70&#10;  Q 775.22 467.04 776.90 470.84&#10;  Q 777.63 472.50 779.09 472.64&#10;  Q 779.56 472.69 779.16 472.94&#10;  Q 779.09 472.99 779.09 473.08&#10;  Q 779.08 473.28 779.21 473.44&#10;  Q 780.07 474.41 781.10 475.17&#10;  Q 782.73 476.35 783.98 478.11&#10;  Q 785.24 479.89 786.91 481.28&#10;  Q 788.58 482.68 790.24 484.09&#10;  Q 790.59 484.38 790.61 484.83&#10;  Q 790.63 485.58 791.20 486.04&#10;  Q 792.67 487.24 793.86 489.07&#10;  A 3.39 3.37 88.9 0 0 794.90 490.08&#10;  Q 796.01 490.78 796.86 491.65&#10;  Q 798.58 493.41 800.41 495.26&#10;  Q 800.66 495.52 800.66 495.89&#10;  Q 800.65 496.02 800.58 496.14&#10;  Q 800.50 496.28 800.59 496.41&#10;  Q 802.10 498.42 804.09 500.04&#10;  Q 805.93 501.54 807.36 503.34&#10;  Q 807.60 503.65 807.67 504.03&#10;  Q 808.02 505.72 809.99 506.31&#10;  Q 810.38 506.43 810.37 506.84&#10;  Q 810.34 507.98 811.40 508.35&#10;  Q 811.77 508.47 811.64 508.84&#10;  Q 811.58 509.01 811.68 509.17&#10;  Q 811.75 509.26 811.85 509.33&#10;  Q 812.00 509.42 812.18 509.36&#10;  Q 812.56 509.23 812.62 509.63&#10;  Q 812.96 511.98 815.13 512.62&#10;  Q 815.35 512.69 815.38 512.92&#10;  Q 815.45 513.53 816.04 513.54&#10;  Q 816.44 513.55 816.25 513.91&#10;  Q 815.96 514.42 816.33 514.86&#10;  Q 817.39 516.14 818.85 516.20&#10;  Q 819.49 516.23 819.48 516.88&#10;  Q 819.47 518.51 821.28 519.35&#10;  Q 821.60 519.50 821.69 519.85&#10;  Q 821.78 520.22 822.09 520.44&#10;  Q 822.99 521.04 823.42 522.02&#10;  C 823.91 523.15 825.00 523.93 826.05 524.48&#10;  Q 826.47 524.70 826.43 525.18&#10;  Q 826.35 526.16 827.26 526.41&#10;  Q 827.44 526.46 827.40 526.64&#10;  Q 827.25 527.47 828.08 527.37&#10;  Q 828.70 527.31 828.56 527.91&#10;  Q 828.48 528.28 828.87 528.26&#10;  Q 829.56 528.23 829.63 528.92&#10;  Q 829.68 529.40 830.16 529.36&#10;  Q 830.96 529.29 830.44 529.89&#10;  Q 830.38 529.96 830.37 530.05&#10;  Q 830.35 530.25 830.46 530.41&#10;  Q 831.46 531.86 832.98 532.49&#10;  A 0.81 0.79 -85.0 0 1 833.44 533.05&#10;  Q 833.61 533.82 834.21 534.22&#10;  Q 834.54 534.44 834.73 534.79&#10;  Q 835.17 535.59 835.66 536.26&#10;  Q 836.03 536.77 836.67 537.17&#10;  Q 838.29 538.17 840.01 539.97&#10;  Q 840.43 540.42 840.55 540.99&#10;  Q 840.75 542.01 841.82 542.36&#10;  A 0.57 0.56 -2.2 0 1 842.17 542.68&#10;  L 842.69 543.96&#10;  A 0.83 0.80 89.6 0 0 843.14 544.42&#10;  Q 844.30 544.90 844.71 546.03&#10;  Q 844.78 546.21 844.92 546.34&#10;  Q 844.99 546.40 845.08 546.37&#10;  Q 845.75 546.15 845.62 546.85&#10;  Q 845.59 546.99 845.69 547.09&#10;  Q 845.79 547.19 845.92 547.26&#10;  Q 847.93 548.41 848.50 550.53&#10;  Q 848.62 550.97 848.97 551.27&#10;  Q 850.57 552.68 851.90 554.24&#10;  Q 853.04 555.58 854.94 556.54&#10;  Q 855.15 556.65 854.97 556.79&#10;  Q 854.94 556.82 854.92 556.87&#10;  Q 854.85 557.05 855.00 557.17&#10;  Q 856.11 558.13 856.74 559.38&#10;  Q 857.01 559.91 857.51 560.23&#10;  Q 858.86 561.09 859.67 562.45&#10;  Q 859.95 562.91 860.47 563.12&#10;  Q 860.97 563.32 861.30 563.76&#10;  Q 862.99 566.01 865.51 568.62&#10;  A 2.80 2.71 -75.6 0 1 866.20 569.83&#10;  Q 866.56 571.16 867.89 571.10&#10;  Q 868.25 571.09 868.53 571.30&#10;  Q 869.55 572.05 869.73 573.27&#10;  Q 869.82 573.80 870.25 574.13&#10;  Q 871.77 575.28 872.63 576.77&#10;  Q 873.58 578.40 875.15 579.53&#10;  Q 876.55 580.54 877.66 581.72&#10;  Q 878.67 582.81 879.98 583.72&#10;  A 1.50 1.49 -79.3 0 1 880.59 584.62&#10;  Q 880.73 585.25 880.61 585.90&#10;  Q 880.54 586.27 880.88 586.41&#10;  Q 881.41 586.63 881.53 587.28&#10;  Q 881.62 587.79 881.98 588.17&#10;  L 890.38 597.15&#10;  Q 890.58 597.37 890.88 597.43&#10;  Q 891.44 597.53 891.57 598.03&#10;  Q 891.68 598.46 892.09 598.64&#10;  Q 893.51 599.28 894.44 600.60&#10;  Q 895.78 602.48 896.17 602.86&#10;  Q 900.18 606.81 904.18 611.01&#10;  Q 906.03 612.97 908.10 615.86&#10;  Q 910.05 618.59 912.25 620.76&#10;  Q 913.89 622.37 915.34 623.96&#10;  Q 915.55 624.20 915.85 624.31&#10;  Q 917.16 624.81 917.80 626.14&#10;  C 918.28 627.11 919.53 627.34 920.47 627.01&#10;  Q 921.06 626.80 921.13 627.43&#10;  Q 921.14 627.53 921.23 627.48&#10;  Q 921.67 627.26 921.63 627.76&#10;  Q 921.47 629.55 922.37 629.53&#10;  Q 918.09 673.43 906.27 714.25&#10;  Q 898.08 742.52 884.57 768.49&#10;  Q 852.00 831.11 791.99 868.04&#10;  C 761.19 886.99 725.41 899.49 689.62 906.70&#10;  Q 648.00 915.08 603.49 917.79&#10;  Q 569.46 919.87 537.84 920.28&#10;  C 489.45 920.92 440.97 920.76 393.08 917.85&#10;  Q 360.08 915.84 327.27 910.58&#10;  C 289.27 904.48 252.45 894.17 219.14 876.66&#10;  Q 149.42 840.00 112.24 770.30&#10;  C 89.90 728.42 79.45 681.38 73.91 633.74&#10;  Q 69.82 598.48 68.68 556.67&#10;  Q 67.25 503.98 68.21 442.80&#10;  C 68.90 398.53 71.63 354.01 79.41 310.49&#10;  Q 84.67 281.09 94.31 252.81&#10;  C 116.01 189.23 157.68 138.04 216.95 106.04&#10;  C 254.46 85.79 297.53 74.39 340.01 68.60&#10;  Q 376.32 63.65 412.98 61.88&#10;  Z"/>
<path fill="#ffffff" d="&#10;  M 550.06 253.24&#10;  Q 587.67 253.12 625.31 253.44&#10;  Q 636.82 253.54 640.98 255.19&#10;  Q 650.30 258.90 653.41 270.34&#10;  Q 653.66 276.10 653.53 279.00&#10;  C 653.10 288.87 645.22 297.64 635.49 298.66&#10;  Q 633.09 298.91 625.25 298.90&#10;  Q 567.02 298.82 503.57 298.68&#10;  A 2.19 2.17 17.9 0 0 501.81 299.57&#10;  C 500.60 301.23 499.77 303.13 499.48 305.16&#10;  Q 498.67 310.76 497.72 316.46&#10;  Q 496.64 322.88 501.43 326.67&#10;  Q 502.97 327.89 504.95 327.93&#10;  Q 524.75 328.33 544.44 333.45&#10;  Q 556.25 336.52 570.10 341.88&#10;  Q 579.04 345.34 587.99 350.21&#10;  Q 639.96 378.50 665.48 433.61&#10;  Q 669.28 441.81 672.57 451.75&#10;  Q 687.84 497.94 679.36 544.63&#10;  Q 677.23 556.34 673.13 569.26&#10;  C 671.31 575.02 668.49 580.99 663.26 584.17&#10;  Q 652.58 590.66 642.08 585.90&#10;  Q 634.43 582.42 631.31 575.80&#10;  Q 628.80 570.48 628.98 565.30&#10;  Q 629.12 561.27 631.18 555.09&#10;  Q 636.97 537.79 637.87 519.94&#10;  Q 639.95 478.60 620.64 442.61&#10;  Q 601.10 406.18 563.78 387.18&#10;  Q 555.75 383.09 545.44 379.73&#10;  Q 526.37 373.52 510.20 372.18&#10;  C 499.12 371.26 489.64 372.74 487.86 386.01&#10;  Q 485.14 406.20 482.25 426.00&#10;  Q 481.39 431.87 482.03 433.90&#10;  C 483.35 438.06 486.90 439.42 490.97 439.16&#10;  Q 502.09 438.46 510.95 439.78&#10;  C 528.45 442.40 544.37 450.87 555.94 464.24&#10;  Q 569.78 480.24 573.21 502.60&#10;  Q 573.73 505.95 574.55 516.08&#10;  Q 574.95 521.08 573.48 531.30&#10;  Q 565.86 584.23 558.13 637.83&#10;  Q 557.04 645.43 563.29 648.20&#10;  Q 564.98 648.95 570.08 648.91&#10;  Q 612.93 648.61 657.18 648.97&#10;  Q 672.52 649.09 677.78 663.16&#10;  Q 679.13 666.76 678.80 674.00&#10;  Q 678.44 681.90 673.42 687.32&#10;  C 666.32 694.99 658.84 694.45 648.50 694.45&#10;  Q 603.31 694.45 559.99 694.19&#10;  Q 555.22 694.16 553.16 695.23&#10;  Q 549.53 697.13 548.83 702.23&#10;  Q 543.13 743.84 535.93 792.42&#10;  Q 534.59 801.45 527.84 806.52&#10;  C 521.39 811.36 514.84 810.93 507.40 809.44&#10;  Q 500.37 808.02 495.70 802.47&#10;  C 491.35 797.30 490.42 791.72 491.37 784.83&#10;  Q 496.85 745.11 503.10 703.75&#10;  C 503.86 698.69 500.88 694.10 495.30 694.10&#10;  Q 424.42 694.16 356.68 693.89&#10;  C 346.72 693.85 339.62 691.34 334.62 682.46&#10;  C 332.01 677.83 332.20 671.39 332.77 666.29&#10;  C 333.87 656.39 342.94 648.63 353.00 648.56&#10;  C 401.13 648.24 448.17 648.45 497.73 648.76&#10;  Q 501.34 648.79 506.23 647.20&#10;  Q 511.27 645.57 512.36 638.43&#10;  Q 513.58 630.50 514.97 622.05&#10;  Q 515.88 616.49 514.96 614.28&#10;  C 512.27 607.81 506.56 608.75 501.09 610.31&#10;  C 482.17 615.72 462.26 615.41 442.87 611.96&#10;  Q 434.97 610.56 427.62 607.53&#10;  C 421.14 604.86 414.75 602.54 408.46 599.21&#10;  Q 393.85 591.47 381.36 580.00&#10;  Q 372.60 571.95 365.10 560.93&#10;  Q 354.66 545.56 348.09 528.58&#10;  Q 332.98 489.53 342.03 449.79&#10;  Q 349.61 416.53 372.47 387.05&#10;  Q 378.57 379.19 386.12 372.30&#10;  Q 399.19 360.36 412.76 352.20&#10;  Q 423.08 345.98 435.62 339.56&#10;  C 443.12 335.72 449.86 332.99 451.34 323.56&#10;  Q 452.85 313.89 453.98 304.72&#10;  Q 454.25 302.54 454.16 300.26&#10;  A 1.68 1.67 0.8 0 0 452.58 298.65&#10;  Q 448.09 298.38 443.88 298.42&#10;  Q 407.17 298.72 375.40 298.24&#10;  Q 369.54 298.15 366.16 296.63&#10;  C 355.64 291.88 352.75 282.95 353.74 272.21&#10;  C 354.75 261.26 363.38 253.22 374.42 253.06&#10;  Q 409.93 252.56 452.71 253.30&#10;  C 455.38 253.34 460.20 252.61 461.47 249.91&#10;  Q 462.11 248.55 462.30 247.16&#10;  Q 467.86 207.57 473.92 164.66&#10;  C 475.13 156.08 478.21 149.71 485.87 145.82&#10;  Q 491.19 143.12 498.88 144.15&#10;  Q 504.40 144.89 507.87 146.64&#10;  Q 516.62 151.05 518.95 160.85&#10;  Q 519.86 164.66 518.42 174.54&#10;  Q 512.85 212.64 508.38 242.62&#10;  C 507.44 248.96 511.12 252.24 517.20 252.82&#10;  Q 525.95 253.65 533.59 253.45&#10;  Q 537.44 253.35 541.86 253.46&#10;  Q 545.95 253.55 550.06 253.24&#10;  Z&#10;  M 429.88 393.42&#10;  Q 423.17 398.11 417.09 403.68&#10;  Q 410.94 409.31 406.27 415.40&#10;  Q 393.90 431.53 388.07 448.96&#10;  Q 377.03 481.95 389.73 514.00&#10;  C 393.64 523.87 399.38 534.37 406.84 542.27&#10;  Q 409.47 545.05 413.13 545.04&#10;  C 417.85 545.03 420.41 541.65 421.20 537.33&#10;  Q 423.40 525.31 424.67 512.20&#10;  Q 425.62 502.42 427.03 492.33&#10;  Q 433.70 444.79 441.32 394.00&#10;  Q 441.61 392.07 441.15 390.11&#10;  A 1.30 1.30 0.0 0 0 440.52 389.27&#10;  Q 438.98 388.44 437.40 389.16&#10;  Q 433.28 391.04 429.88 393.42&#10;  Z&#10;  M 530.48 513.30&#10;  A 31.07 31.07 0.0 0 0 499.41 482.23&#10;  A 31.07 31.07 0.0 0 0 468.34 513.30&#10;  A 31.07 31.07 0.0 0 0 499.41 544.37&#10;  A 31.07 31.07 0.0 0 0 530.48 513.30&#10;  Z"/>
<path fill="#fe1835" d="&#10;  M 429.88 393.42&#10;  Q 433.28 391.04 437.40 389.16&#10;  Q 438.98 388.44 440.52 389.27&#10;  A 1.30 1.30 0.0 0 1 441.15 390.11&#10;  Q 441.61 392.07 441.32 394.00&#10;  Q 433.70 444.79 427.03 492.33&#10;  Q 425.62 502.42 424.67 512.20&#10;  Q 423.40 525.31 421.20 537.33&#10;  C 420.41 541.65 417.85 545.03 413.13 545.04&#10;  Q 409.47 545.05 406.84 542.27&#10;  C 399.38 534.37 393.64 523.87 389.73 514.00&#10;  Q 377.03 481.95 388.07 448.96&#10;  Q 393.90 431.53 406.27 415.40&#10;  Q 410.94 409.31 417.09 403.68&#10;  Q 423.17 398.11 429.88 393.42&#10;  Z"/>
<circle fill="#fe1835" cx="499.41" cy="513.30" r="31.07"/>
</svg>